<mxfile host="Electron" agent="Mozilla/5.0 (Windows NT 10.0; Win64; x64) AppleWebKit/537.36 (KHTML, like Gecko) draw.io/24.7.17 Chrome/128.0.6613.36 Electron/32.0.1 Safari/537.36" version="24.7.17">
  <diagram name="Страница — 1" id="_hEnDNuZC0-9BNf5I3-u">
    <mxGraphModel dx="1050" dy="621" grid="1" gridSize="10" guides="1" tooltips="1" connect="1" arrows="1" fold="1" page="1" pageScale="1" pageWidth="827" pageHeight="1169" math="0" shadow="0">
      <root>
        <mxCell id="0" />
        <mxCell id="1" parent="0" />
        <mxCell id="D90VI0-EXbcfJWrA68ud-1" value="&lt;font face=&quot;Times New Roman&quot;&gt;Начало&lt;/font&gt;" style="ellipse;whiteSpace=wrap;html=1;" parent="1" vertex="1">
          <mxGeometry x="320" width="160" height="40" as="geometry" />
        </mxCell>
        <mxCell id="D90VI0-EXbcfJWrA68ud-2" value="" style="endArrow=classic;html=1;rounded=0;" parent="1" edge="1">
          <mxGeometry width="50" height="50" relative="1" as="geometry">
            <mxPoint x="400" y="40" as="sourcePoint" />
            <mxPoint x="400" y="60" as="targetPoint" />
          </mxGeometry>
        </mxCell>
        <mxCell id="D90VI0-EXbcfJWrA68ud-3" value="&lt;font face=&quot;Times New Roman&quot;&gt;int N, M;&lt;/font&gt;" style="rounded=0;whiteSpace=wrap;html=1;" parent="1" vertex="1">
          <mxGeometry x="320" y="60" width="160" height="20" as="geometry" />
        </mxCell>
        <mxCell id="D90VI0-EXbcfJWrA68ud-4" value="" style="endArrow=classic;html=1;rounded=0;" parent="1" edge="1">
          <mxGeometry width="50" height="50" relative="1" as="geometry">
            <mxPoint x="399.83" y="80" as="sourcePoint" />
            <mxPoint x="399.83" y="100" as="targetPoint" />
          </mxGeometry>
        </mxCell>
        <mxCell id="D90VI0-EXbcfJWrA68ud-5" value="&lt;font face=&quot;Times New Roman&quot;&gt;true&lt;/font&gt;" style="rhombus;whiteSpace=wrap;html=1;" parent="1" vertex="1">
          <mxGeometry x="320" y="100" width="160" height="20" as="geometry" />
        </mxCell>
        <mxCell id="D90VI0-EXbcfJWrA68ud-6" value="" style="endArrow=classic;html=1;rounded=0;" parent="1" edge="1">
          <mxGeometry width="50" height="50" relative="1" as="geometry">
            <mxPoint x="399.83" y="120" as="sourcePoint" />
            <mxPoint x="399.83" y="140" as="targetPoint" />
          </mxGeometry>
        </mxCell>
        <mxCell id="D90VI0-EXbcfJWrA68ud-7" value="&lt;font face=&quot;Times New Roman&quot;&gt;Введите количество строк (N, 1 &amp;lt; N &amp;lt;= 25):&amp;nbsp;&lt;/font&gt;" style="shape=document;whiteSpace=wrap;html=1;boundedLbl=1;" parent="1" vertex="1">
          <mxGeometry x="320" y="140" width="160" height="40" as="geometry" />
        </mxCell>
        <mxCell id="D90VI0-EXbcfJWrA68ud-8" value="" style="endArrow=classic;html=1;rounded=0;exitX=0.504;exitY=0.847;exitDx=0;exitDy=0;exitPerimeter=0;" parent="1" source="D90VI0-EXbcfJWrA68ud-7" edge="1">
          <mxGeometry width="50" height="50" relative="1" as="geometry">
            <mxPoint x="350" y="250" as="sourcePoint" />
            <mxPoint x="400" y="200" as="targetPoint" />
          </mxGeometry>
        </mxCell>
        <mxCell id="D90VI0-EXbcfJWrA68ud-9" value="&lt;font face=&quot;Times New Roman&quot;&gt;int.TryParse&lt;/font&gt;&lt;div&gt;&lt;font face=&quot;OwuggKouk_obIYydFLFJ&quot;&gt;(Console.ReadLine(), out N) &amp;amp;&amp;amp; N &amp;gt; 1&amp;nbsp;&lt;/font&gt;&lt;/div&gt;&lt;div&gt;&lt;font face=&quot;OwuggKouk_obIYydFLFJ&quot;&gt;&amp;amp;&amp;amp; N &amp;lt;= 25&lt;/font&gt;&lt;/div&gt;" style="rhombus;whiteSpace=wrap;html=1;" parent="1" vertex="1">
          <mxGeometry x="320" y="200" width="160" height="120" as="geometry" />
        </mxCell>
        <mxCell id="D90VI0-EXbcfJWrA68ud-10" value="" style="endArrow=none;html=1;rounded=0;" parent="1" edge="1">
          <mxGeometry width="50" height="50" relative="1" as="geometry">
            <mxPoint x="480" y="260" as="sourcePoint" />
            <mxPoint x="560" y="260" as="targetPoint" />
          </mxGeometry>
        </mxCell>
        <mxCell id="D90VI0-EXbcfJWrA68ud-11" value="&lt;font face=&quot;Times New Roman&quot;&gt;Неверный ввод. Количество строк должно быть от 2 до 25.&lt;/font&gt;" style="shape=document;whiteSpace=wrap;html=1;boundedLbl=1;" parent="1" vertex="1">
          <mxGeometry x="480" y="280" width="160" height="40" as="geometry" />
        </mxCell>
        <mxCell id="D90VI0-EXbcfJWrA68ud-12" value="" style="endArrow=classic;html=1;rounded=0;entryX=0.5;entryY=0;entryDx=0;entryDy=0;" parent="1" target="D90VI0-EXbcfJWrA68ud-11" edge="1">
          <mxGeometry width="50" height="50" relative="1" as="geometry">
            <mxPoint x="560" y="260" as="sourcePoint" />
            <mxPoint x="610" y="210" as="targetPoint" />
          </mxGeometry>
        </mxCell>
        <mxCell id="D90VI0-EXbcfJWrA68ud-16" value="" style="endArrow=classic;html=1;rounded=0;" parent="1" edge="1">
          <mxGeometry width="50" height="50" relative="1" as="geometry">
            <mxPoint x="560" y="340" as="sourcePoint" />
            <mxPoint x="400" y="340" as="targetPoint" />
          </mxGeometry>
        </mxCell>
        <mxCell id="D90VI0-EXbcfJWrA68ud-17" value="" style="endArrow=none;html=1;rounded=0;entryX=0.499;entryY=0.842;entryDx=0;entryDy=0;entryPerimeter=0;" parent="1" target="D90VI0-EXbcfJWrA68ud-11" edge="1">
          <mxGeometry width="50" height="50" relative="1" as="geometry">
            <mxPoint x="560" y="340" as="sourcePoint" />
            <mxPoint x="610" y="290" as="targetPoint" />
          </mxGeometry>
        </mxCell>
        <mxCell id="D90VI0-EXbcfJWrA68ud-18" value="" style="endArrow=none;html=1;rounded=0;" parent="1" edge="1">
          <mxGeometry width="50" height="50" relative="1" as="geometry">
            <mxPoint x="400" y="360" as="sourcePoint" />
            <mxPoint x="400" y="320" as="targetPoint" />
          </mxGeometry>
        </mxCell>
        <mxCell id="D90VI0-EXbcfJWrA68ud-19" value="" style="endArrow=none;html=1;rounded=0;" parent="1" edge="1">
          <mxGeometry width="50" height="50" relative="1" as="geometry">
            <mxPoint x="300" y="340" as="sourcePoint" />
            <mxPoint x="400" y="340" as="targetPoint" />
          </mxGeometry>
        </mxCell>
        <mxCell id="D90VI0-EXbcfJWrA68ud-20" value="" style="endArrow=none;html=1;rounded=0;" parent="1" edge="1">
          <mxGeometry width="50" height="50" relative="1" as="geometry">
            <mxPoint x="300" y="340" as="sourcePoint" />
            <mxPoint x="300" y="110" as="targetPoint" />
          </mxGeometry>
        </mxCell>
        <mxCell id="D90VI0-EXbcfJWrA68ud-21" value="" style="endArrow=classic;html=1;rounded=0;" parent="1" edge="1">
          <mxGeometry width="50" height="50" relative="1" as="geometry">
            <mxPoint x="300" y="110" as="sourcePoint" />
            <mxPoint x="320" y="110" as="targetPoint" />
          </mxGeometry>
        </mxCell>
        <mxCell id="D90VI0-EXbcfJWrA68ud-22" value="" style="endArrow=none;html=1;rounded=0;" parent="1" edge="1">
          <mxGeometry width="50" height="50" relative="1" as="geometry">
            <mxPoint x="650" y="110" as="sourcePoint" />
            <mxPoint x="480" y="110" as="targetPoint" />
          </mxGeometry>
        </mxCell>
        <mxCell id="D90VI0-EXbcfJWrA68ud-23" value="" style="endArrow=none;html=1;rounded=0;" parent="1" edge="1">
          <mxGeometry width="50" height="50" relative="1" as="geometry">
            <mxPoint x="650" y="110" as="sourcePoint" />
            <mxPoint x="650" y="370" as="targetPoint" />
          </mxGeometry>
        </mxCell>
        <mxCell id="D90VI0-EXbcfJWrA68ud-24" value="" style="endArrow=none;html=1;rounded=0;" parent="1" edge="1">
          <mxGeometry width="50" height="50" relative="1" as="geometry">
            <mxPoint x="400" y="370" as="sourcePoint" />
            <mxPoint x="650" y="370" as="targetPoint" />
          </mxGeometry>
        </mxCell>
        <mxCell id="D90VI0-EXbcfJWrA68ud-25" value="" style="endArrow=classic;html=1;rounded=0;" parent="1" edge="1">
          <mxGeometry width="50" height="50" relative="1" as="geometry">
            <mxPoint x="400" y="370" as="sourcePoint" />
            <mxPoint x="400" y="400" as="targetPoint" />
          </mxGeometry>
        </mxCell>
        <mxCell id="D90VI0-EXbcfJWrA68ud-26" value="" style="endArrow=classic;html=1;rounded=0;" parent="1" edge="1">
          <mxGeometry width="50" height="50" relative="1" as="geometry">
            <mxPoint x="400" y="360" as="sourcePoint" />
            <mxPoint x="400" y="370" as="targetPoint" />
          </mxGeometry>
        </mxCell>
        <mxCell id="D90VI0-EXbcfJWrA68ud-27" value="&lt;font face=&quot;Times New Roman&quot;&gt;true&lt;/font&gt;" style="rhombus;whiteSpace=wrap;html=1;" parent="1" vertex="1">
          <mxGeometry x="320" y="400" width="160" height="20" as="geometry" />
        </mxCell>
        <mxCell id="D90VI0-EXbcfJWrA68ud-28" value="" style="endArrow=classic;html=1;rounded=0;" parent="1" edge="1">
          <mxGeometry width="50" height="50" relative="1" as="geometry">
            <mxPoint x="399.83" y="420" as="sourcePoint" />
            <mxPoint x="399.83" y="440" as="targetPoint" />
          </mxGeometry>
        </mxCell>
        <mxCell id="D90VI0-EXbcfJWrA68ud-29" value="&lt;font face=&quot;Times New Roman&quot;&gt;Введите количество столбцов (M, 1 &amp;lt; M &amp;lt;= 30):&amp;nbsp;&lt;/font&gt;" style="shape=document;whiteSpace=wrap;html=1;boundedLbl=1;" parent="1" vertex="1">
          <mxGeometry x="320" y="440" width="160" height="40" as="geometry" />
        </mxCell>
        <mxCell id="D90VI0-EXbcfJWrA68ud-30" value="" style="endArrow=classic;html=1;rounded=0;exitX=0.504;exitY=0.847;exitDx=0;exitDy=0;exitPerimeter=0;" parent="1" source="D90VI0-EXbcfJWrA68ud-29" edge="1">
          <mxGeometry width="50" height="50" relative="1" as="geometry">
            <mxPoint x="350" y="550" as="sourcePoint" />
            <mxPoint x="400" y="500" as="targetPoint" />
          </mxGeometry>
        </mxCell>
        <mxCell id="D90VI0-EXbcfJWrA68ud-31" value="&lt;font face=&quot;Times New Roman&quot;&gt;int.TryParse&lt;/font&gt;&lt;div&gt;&lt;font face=&quot;Times New Roman&quot;&gt;(Console.ReadLine(), out M) &amp;amp;&amp;amp; M &amp;gt;&amp;nbsp;&lt;/font&gt;&lt;/div&gt;&lt;div&gt;&lt;font face=&quot;Times New Roman&quot;&gt;1 &amp;amp;&amp;amp; M &amp;lt;= 30&lt;/font&gt;&lt;/div&gt;" style="rhombus;whiteSpace=wrap;html=1;" parent="1" vertex="1">
          <mxGeometry x="320" y="500" width="160" height="120" as="geometry" />
        </mxCell>
        <mxCell id="D90VI0-EXbcfJWrA68ud-32" value="" style="endArrow=none;html=1;rounded=0;" parent="1" edge="1">
          <mxGeometry width="50" height="50" relative="1" as="geometry">
            <mxPoint x="480" y="560" as="sourcePoint" />
            <mxPoint x="560" y="560" as="targetPoint" />
          </mxGeometry>
        </mxCell>
        <mxCell id="D90VI0-EXbcfJWrA68ud-33" value="&lt;font style=&quot;font-size: 11px;&quot; face=&quot;Times New Roman&quot;&gt;Неверный ввод. Количество столбцов должно быть от 2 до 30.&lt;/font&gt;" style="shape=document;whiteSpace=wrap;html=1;boundedLbl=1;" parent="1" vertex="1">
          <mxGeometry x="480" y="580" width="160" height="40" as="geometry" />
        </mxCell>
        <mxCell id="D90VI0-EXbcfJWrA68ud-34" value="" style="endArrow=classic;html=1;rounded=0;entryX=0.5;entryY=0;entryDx=0;entryDy=0;" parent="1" target="D90VI0-EXbcfJWrA68ud-33" edge="1">
          <mxGeometry width="50" height="50" relative="1" as="geometry">
            <mxPoint x="560" y="560" as="sourcePoint" />
            <mxPoint x="610" y="510" as="targetPoint" />
          </mxGeometry>
        </mxCell>
        <mxCell id="D90VI0-EXbcfJWrA68ud-35" value="" style="endArrow=classic;html=1;rounded=0;" parent="1" edge="1">
          <mxGeometry width="50" height="50" relative="1" as="geometry">
            <mxPoint x="560" y="640" as="sourcePoint" />
            <mxPoint x="400" y="640" as="targetPoint" />
          </mxGeometry>
        </mxCell>
        <mxCell id="D90VI0-EXbcfJWrA68ud-36" value="" style="endArrow=none;html=1;rounded=0;entryX=0.499;entryY=0.842;entryDx=0;entryDy=0;entryPerimeter=0;" parent="1" target="D90VI0-EXbcfJWrA68ud-33" edge="1">
          <mxGeometry width="50" height="50" relative="1" as="geometry">
            <mxPoint x="560" y="640" as="sourcePoint" />
            <mxPoint x="610" y="590" as="targetPoint" />
          </mxGeometry>
        </mxCell>
        <mxCell id="D90VI0-EXbcfJWrA68ud-37" value="" style="endArrow=none;html=1;rounded=0;" parent="1" edge="1">
          <mxGeometry width="50" height="50" relative="1" as="geometry">
            <mxPoint x="400" y="660" as="sourcePoint" />
            <mxPoint x="400" y="620" as="targetPoint" />
          </mxGeometry>
        </mxCell>
        <mxCell id="D90VI0-EXbcfJWrA68ud-38" value="" style="endArrow=none;html=1;rounded=0;" parent="1" edge="1">
          <mxGeometry width="50" height="50" relative="1" as="geometry">
            <mxPoint x="300" y="640" as="sourcePoint" />
            <mxPoint x="400" y="640" as="targetPoint" />
          </mxGeometry>
        </mxCell>
        <mxCell id="D90VI0-EXbcfJWrA68ud-39" value="" style="endArrow=none;html=1;rounded=0;" parent="1" edge="1">
          <mxGeometry width="50" height="50" relative="1" as="geometry">
            <mxPoint x="300" y="640" as="sourcePoint" />
            <mxPoint x="300" y="410" as="targetPoint" />
          </mxGeometry>
        </mxCell>
        <mxCell id="D90VI0-EXbcfJWrA68ud-40" value="" style="endArrow=classic;html=1;rounded=0;" parent="1" edge="1">
          <mxGeometry width="50" height="50" relative="1" as="geometry">
            <mxPoint x="300" y="410" as="sourcePoint" />
            <mxPoint x="320" y="410" as="targetPoint" />
          </mxGeometry>
        </mxCell>
        <mxCell id="D90VI0-EXbcfJWrA68ud-41" value="" style="endArrow=none;html=1;rounded=0;" parent="1" edge="1">
          <mxGeometry width="50" height="50" relative="1" as="geometry">
            <mxPoint x="650" y="410" as="sourcePoint" />
            <mxPoint x="480" y="410" as="targetPoint" />
          </mxGeometry>
        </mxCell>
        <mxCell id="D90VI0-EXbcfJWrA68ud-42" value="" style="endArrow=none;html=1;rounded=0;" parent="1" edge="1">
          <mxGeometry width="50" height="50" relative="1" as="geometry">
            <mxPoint x="650" y="410" as="sourcePoint" />
            <mxPoint x="650" y="670" as="targetPoint" />
          </mxGeometry>
        </mxCell>
        <mxCell id="D90VI0-EXbcfJWrA68ud-43" value="" style="endArrow=none;html=1;rounded=0;" parent="1" edge="1">
          <mxGeometry width="50" height="50" relative="1" as="geometry">
            <mxPoint x="400" y="670" as="sourcePoint" />
            <mxPoint x="650" y="670" as="targetPoint" />
          </mxGeometry>
        </mxCell>
        <mxCell id="D90VI0-EXbcfJWrA68ud-44" value="" style="endArrow=classic;html=1;rounded=0;" parent="1" edge="1">
          <mxGeometry width="50" height="50" relative="1" as="geometry">
            <mxPoint x="400" y="670" as="sourcePoint" />
            <mxPoint x="400" y="700" as="targetPoint" />
          </mxGeometry>
        </mxCell>
        <mxCell id="D90VI0-EXbcfJWrA68ud-45" value="" style="endArrow=classic;html=1;rounded=0;" parent="1" edge="1">
          <mxGeometry width="50" height="50" relative="1" as="geometry">
            <mxPoint x="400" y="660" as="sourcePoint" />
            <mxPoint x="400" y="670" as="targetPoint" />
          </mxGeometry>
        </mxCell>
        <mxCell id="D90VI0-EXbcfJWrA68ud-46" value="&lt;font face=&quot;Times New Roman&quot;&gt;int[,] matrix = new int[N, M];&lt;/font&gt;" style="rounded=0;whiteSpace=wrap;html=1;" parent="1" vertex="1">
          <mxGeometry x="320" y="700" width="160" height="20" as="geometry" />
        </mxCell>
        <mxCell id="D90VI0-EXbcfJWrA68ud-47" value="" style="endArrow=classic;html=1;rounded=0;" parent="1" edge="1">
          <mxGeometry width="50" height="50" relative="1" as="geometry">
            <mxPoint x="400" y="720" as="sourcePoint" />
            <mxPoint x="400" y="740" as="targetPoint" />
          </mxGeometry>
        </mxCell>
        <mxCell id="D90VI0-EXbcfJWrA68ud-48" value="&lt;font face=&quot;Times New Roman&quot;&gt;int i = 0; i &amp;lt; N; i++&lt;/font&gt;" style="shape=hexagon;perimeter=hexagonPerimeter2;whiteSpace=wrap;html=1;fixedSize=1;" parent="1" vertex="1">
          <mxGeometry x="320" y="740" width="160" height="20" as="geometry" />
        </mxCell>
        <mxCell id="D90VI0-EXbcfJWrA68ud-49" value="" style="endArrow=classic;html=1;rounded=0;" parent="1" edge="1">
          <mxGeometry width="50" height="50" relative="1" as="geometry">
            <mxPoint x="399.8" y="760" as="sourcePoint" />
            <mxPoint x="399.8" y="780" as="targetPoint" />
          </mxGeometry>
        </mxCell>
        <mxCell id="D90VI0-EXbcfJWrA68ud-50" value="&lt;font face=&quot;Times New Roman&quot;&gt;int j = 0; j &amp;lt; M; j++&lt;/font&gt;" style="shape=hexagon;perimeter=hexagonPerimeter2;whiteSpace=wrap;html=1;fixedSize=1;" parent="1" vertex="1">
          <mxGeometry x="320" y="780" width="160" height="20" as="geometry" />
        </mxCell>
        <mxCell id="D90VI0-EXbcfJWrA68ud-51" value="&lt;font face=&quot;Times New Roman&quot;&gt;int[,] matrix = new int[N, M];&lt;/font&gt;" style="rounded=0;whiteSpace=wrap;html=1;" parent="1" vertex="1">
          <mxGeometry x="320" y="820" width="160" height="20" as="geometry" />
        </mxCell>
        <mxCell id="D90VI0-EXbcfJWrA68ud-52" value="" style="endArrow=classic;html=1;rounded=0;" parent="1" edge="1">
          <mxGeometry width="50" height="50" relative="1" as="geometry">
            <mxPoint x="399.8" y="800" as="sourcePoint" />
            <mxPoint x="399.8" y="820" as="targetPoint" />
          </mxGeometry>
        </mxCell>
        <mxCell id="D90VI0-EXbcfJWrA68ud-53" value="" style="endArrow=classic;html=1;rounded=0;" parent="1" edge="1">
          <mxGeometry width="50" height="50" relative="1" as="geometry">
            <mxPoint x="399.8" y="840" as="sourcePoint" />
            <mxPoint x="399.8" y="860" as="targetPoint" />
          </mxGeometry>
        </mxCell>
        <mxCell id="D90VI0-EXbcfJWrA68ud-54" value="&lt;font face=&quot;Times New Roman&quot;&gt;true&lt;/font&gt;" style="rhombus;whiteSpace=wrap;html=1;" parent="1" vertex="1">
          <mxGeometry x="320" y="860" width="160" height="20" as="geometry" />
        </mxCell>
        <mxCell id="D90VI0-EXbcfJWrA68ud-55" value="" style="endArrow=classic;html=1;rounded=0;" parent="1" edge="1">
          <mxGeometry width="50" height="50" relative="1" as="geometry">
            <mxPoint x="399.8" y="880" as="sourcePoint" />
            <mxPoint x="399.8" y="900" as="targetPoint" />
          </mxGeometry>
        </mxCell>
        <mxCell id="D90VI0-EXbcfJWrA68ud-56" value="&lt;font face=&quot;Times New Roman&quot;&gt;&lt;span style=&quot;font-size: 11px;&quot;&gt;$&quot;Введите {i + 1}-й элемент {j + 1} строки массива: &quot;&lt;/span&gt;&lt;/font&gt;" style="shape=document;whiteSpace=wrap;html=1;boundedLbl=1;" parent="1" vertex="1">
          <mxGeometry x="320" y="900" width="160" height="40" as="geometry" />
        </mxCell>
        <mxCell id="D90VI0-EXbcfJWrA68ud-57" value="" style="endArrow=classic;html=1;rounded=0;exitX=0.499;exitY=0.838;exitDx=0;exitDy=0;exitPerimeter=0;" parent="1" source="D90VI0-EXbcfJWrA68ud-56" edge="1">
          <mxGeometry width="50" height="50" relative="1" as="geometry">
            <mxPoint x="399.8" y="940" as="sourcePoint" />
            <mxPoint x="399.8" y="960" as="targetPoint" />
          </mxGeometry>
        </mxCell>
        <mxCell id="D90VI0-EXbcfJWrA68ud-58" value="&lt;font face=&quot;Times New Roman&quot;&gt;int.TryParse&lt;/font&gt;&lt;div&gt;&lt;font face=&quot;Times New Roman&quot;&gt;(Console.ReadLine(),&amp;nbsp;&lt;/font&gt;&lt;/div&gt;&lt;div&gt;&lt;font face=&quot;Times New Roman&quot;&gt;out value)&lt;/font&gt;&lt;br&gt;&lt;/div&gt;" style="rhombus;whiteSpace=wrap;html=1;" parent="1" vertex="1">
          <mxGeometry x="320" y="960" width="160" height="60" as="geometry" />
        </mxCell>
        <mxCell id="D90VI0-EXbcfJWrA68ud-59" value="" style="endArrow=none;html=1;rounded=0;" parent="1" edge="1">
          <mxGeometry width="50" height="50" relative="1" as="geometry">
            <mxPoint x="480" y="990" as="sourcePoint" />
            <mxPoint x="570" y="990" as="targetPoint" />
          </mxGeometry>
        </mxCell>
        <mxCell id="D90VI0-EXbcfJWrA68ud-60" value="&lt;font face=&quot;Times New Roman&quot;&gt;&lt;span style=&quot;font-size: 11px;&quot;&gt;&quot;Значение должно быть числом.&quot;&lt;/span&gt;&lt;/font&gt;" style="shape=document;whiteSpace=wrap;html=1;boundedLbl=1;" parent="1" vertex="1">
          <mxGeometry x="490" y="1000" width="160" height="40" as="geometry" />
        </mxCell>
        <mxCell id="D90VI0-EXbcfJWrA68ud-61" value="" style="endArrow=classic;html=1;rounded=0;entryX=0.5;entryY=0;entryDx=0;entryDy=0;" parent="1" target="D90VI0-EXbcfJWrA68ud-60" edge="1">
          <mxGeometry width="50" height="50" relative="1" as="geometry">
            <mxPoint x="570" y="990" as="sourcePoint" />
            <mxPoint x="620" y="940" as="targetPoint" />
          </mxGeometry>
        </mxCell>
        <mxCell id="D90VI0-EXbcfJWrA68ud-63" value="" style="endArrow=none;html=1;rounded=0;entryX=0.563;entryY=0.794;entryDx=0;entryDy=0;entryPerimeter=0;" parent="1" target="D90VI0-EXbcfJWrA68ud-60" edge="1">
          <mxGeometry width="50" height="50" relative="1" as="geometry">
            <mxPoint x="580" y="1050" as="sourcePoint" />
            <mxPoint x="580" y="1040" as="targetPoint" />
          </mxGeometry>
        </mxCell>
        <mxCell id="D90VI0-EXbcfJWrA68ud-64" value="" style="endArrow=classic;html=1;rounded=0;" parent="1" edge="1">
          <mxGeometry width="50" height="50" relative="1" as="geometry">
            <mxPoint x="580" y="1050" as="sourcePoint" />
            <mxPoint x="400" y="1050" as="targetPoint" />
          </mxGeometry>
        </mxCell>
        <mxCell id="D90VI0-EXbcfJWrA68ud-65" value="" style="endArrow=none;html=1;rounded=0;" parent="1" edge="1">
          <mxGeometry width="50" height="50" relative="1" as="geometry">
            <mxPoint x="400" y="1060" as="sourcePoint" />
            <mxPoint x="400" y="1020" as="targetPoint" />
          </mxGeometry>
        </mxCell>
        <mxCell id="D90VI0-EXbcfJWrA68ud-66" value="" style="endArrow=none;html=1;rounded=0;" parent="1" edge="1">
          <mxGeometry width="50" height="50" relative="1" as="geometry">
            <mxPoint x="310" y="1050" as="sourcePoint" />
            <mxPoint x="400" y="1050" as="targetPoint" />
          </mxGeometry>
        </mxCell>
        <mxCell id="D90VI0-EXbcfJWrA68ud-67" value="" style="endArrow=none;html=1;rounded=0;" parent="1" edge="1">
          <mxGeometry width="50" height="50" relative="1" as="geometry">
            <mxPoint x="310" y="1050" as="sourcePoint" />
            <mxPoint x="310" y="870" as="targetPoint" />
          </mxGeometry>
        </mxCell>
        <mxCell id="D90VI0-EXbcfJWrA68ud-68" value="" style="endArrow=classic;html=1;rounded=0;" parent="1" edge="1">
          <mxGeometry width="50" height="50" relative="1" as="geometry">
            <mxPoint x="310" y="870" as="sourcePoint" />
            <mxPoint x="320" y="870" as="targetPoint" />
          </mxGeometry>
        </mxCell>
        <mxCell id="D90VI0-EXbcfJWrA68ud-69" value="" style="endArrow=none;html=1;rounded=0;" parent="1" edge="1">
          <mxGeometry width="50" height="50" relative="1" as="geometry">
            <mxPoint x="660" y="870" as="sourcePoint" />
            <mxPoint x="480" y="870" as="targetPoint" />
          </mxGeometry>
        </mxCell>
        <mxCell id="D90VI0-EXbcfJWrA68ud-70" value="" style="endArrow=none;html=1;rounded=0;" parent="1" edge="1">
          <mxGeometry width="50" height="50" relative="1" as="geometry">
            <mxPoint x="660" y="1070" as="sourcePoint" />
            <mxPoint x="660" y="870" as="targetPoint" />
          </mxGeometry>
        </mxCell>
        <mxCell id="D90VI0-EXbcfJWrA68ud-71" value="" style="endArrow=none;html=1;rounded=0;" parent="1" edge="1">
          <mxGeometry width="50" height="50" relative="1" as="geometry">
            <mxPoint x="400" y="1070" as="sourcePoint" />
            <mxPoint x="660" y="1070" as="targetPoint" />
          </mxGeometry>
        </mxCell>
        <mxCell id="D90VI0-EXbcfJWrA68ud-72" value="" style="endArrow=classic;html=1;rounded=0;" parent="1" edge="1">
          <mxGeometry width="50" height="50" relative="1" as="geometry">
            <mxPoint x="400" y="1070" as="sourcePoint" />
            <mxPoint x="400" y="1100" as="targetPoint" />
          </mxGeometry>
        </mxCell>
        <mxCell id="D90VI0-EXbcfJWrA68ud-73" value="" style="endArrow=classic;html=1;rounded=0;" parent="1" edge="1">
          <mxGeometry width="50" height="50" relative="1" as="geometry">
            <mxPoint x="400" y="1060" as="sourcePoint" />
            <mxPoint x="400" y="1070" as="targetPoint" />
          </mxGeometry>
        </mxCell>
        <mxCell id="D90VI0-EXbcfJWrA68ud-74" value="&lt;font face=&quot;Times New Roman&quot;&gt;matrix[i, j] = value;&lt;/font&gt;" style="rounded=0;whiteSpace=wrap;html=1;" parent="1" vertex="1">
          <mxGeometry x="320" y="1100" width="160" height="20" as="geometry" />
        </mxCell>
        <mxCell id="D90VI0-EXbcfJWrA68ud-75" value="" style="endArrow=classic;html=1;rounded=0;" parent="1" edge="1">
          <mxGeometry width="50" height="50" relative="1" as="geometry">
            <mxPoint x="400" y="1120" as="sourcePoint" />
            <mxPoint x="400" y="1140" as="targetPoint" />
          </mxGeometry>
        </mxCell>
        <mxCell id="D90VI0-EXbcfJWrA68ud-76" value="&lt;font face=&quot;Times New Roman&quot;&gt;1&lt;/font&gt;" style="ellipse;whiteSpace=wrap;html=1;aspect=fixed;" parent="1" vertex="1">
          <mxGeometry x="390" y="1140" width="20" height="20" as="geometry" />
        </mxCell>
        <mxCell id="D90VI0-EXbcfJWrA68ud-77" value="&lt;font face=&quot;Times New Roman&quot;&gt;1&lt;/font&gt;" style="ellipse;whiteSpace=wrap;html=1;aspect=fixed;" parent="1" vertex="1">
          <mxGeometry x="390" y="1180" width="20" height="20" as="geometry" />
        </mxCell>
        <mxCell id="D90VI0-EXbcfJWrA68ud-78" value="" style="endArrow=none;html=1;rounded=0;" parent="1" edge="1">
          <mxGeometry width="50" height="50" relative="1" as="geometry">
            <mxPoint x="400" y="1220" as="sourcePoint" />
            <mxPoint x="400" y="1200" as="targetPoint" />
          </mxGeometry>
        </mxCell>
        <mxCell id="D90VI0-EXbcfJWrA68ud-79" value="" style="endArrow=none;html=1;rounded=0;" parent="1" edge="1">
          <mxGeometry width="50" height="50" relative="1" as="geometry">
            <mxPoint x="300" y="1220" as="sourcePoint" />
            <mxPoint x="400" y="1220" as="targetPoint" />
          </mxGeometry>
        </mxCell>
        <mxCell id="D90VI0-EXbcfJWrA68ud-80" value="" style="endArrow=classic;html=1;rounded=0;" parent="1" edge="1">
          <mxGeometry width="50" height="50" relative="1" as="geometry">
            <mxPoint x="300" y="1220" as="sourcePoint" />
            <mxPoint x="300" y="1200" as="targetPoint" />
          </mxGeometry>
        </mxCell>
        <mxCell id="D90VI0-EXbcfJWrA68ud-81" value="&lt;font face=&quot;Times New Roman&quot;&gt;2&lt;/font&gt;" style="ellipse;whiteSpace=wrap;html=1;aspect=fixed;" parent="1" vertex="1">
          <mxGeometry x="290" y="1180" width="20" height="20" as="geometry" />
        </mxCell>
        <mxCell id="D90VI0-EXbcfJWrA68ud-82" value="&lt;font face=&quot;Times New Roman&quot;&gt;2&lt;/font&gt;" style="ellipse;whiteSpace=wrap;html=1;aspect=fixed;" parent="1" vertex="1">
          <mxGeometry x="290" y="1140" width="20" height="20" as="geometry" />
        </mxCell>
        <mxCell id="D90VI0-EXbcfJWrA68ud-83" value="" style="endArrow=none;html=1;rounded=0;" parent="1" edge="1">
          <mxGeometry width="50" height="50" relative="1" as="geometry">
            <mxPoint x="300" y="1140" as="sourcePoint" />
            <mxPoint x="300" y="790" as="targetPoint" />
          </mxGeometry>
        </mxCell>
        <mxCell id="D90VI0-EXbcfJWrA68ud-84" value="" style="endArrow=classic;html=1;rounded=0;entryX=0;entryY=0.5;entryDx=0;entryDy=0;" parent="1" target="D90VI0-EXbcfJWrA68ud-50" edge="1">
          <mxGeometry width="50" height="50" relative="1" as="geometry">
            <mxPoint x="300" y="790" as="sourcePoint" />
            <mxPoint x="350" y="740" as="targetPoint" />
          </mxGeometry>
        </mxCell>
        <mxCell id="D90VI0-EXbcfJWrA68ud-85" value="" style="endArrow=none;html=1;rounded=0;" parent="1" edge="1">
          <mxGeometry width="50" height="50" relative="1" as="geometry">
            <mxPoint x="480" y="790" as="sourcePoint" />
            <mxPoint x="670" y="790" as="targetPoint" />
          </mxGeometry>
        </mxCell>
        <mxCell id="D90VI0-EXbcfJWrA68ud-87" value="" style="endArrow=classic;html=1;rounded=0;" parent="1" edge="1">
          <mxGeometry width="50" height="50" relative="1" as="geometry">
            <mxPoint x="670" y="790" as="sourcePoint" />
            <mxPoint x="670" y="1140" as="targetPoint" />
          </mxGeometry>
        </mxCell>
        <mxCell id="D90VI0-EXbcfJWrA68ud-88" value="&lt;font face=&quot;Times New Roman&quot;&gt;3&lt;/font&gt;" style="ellipse;whiteSpace=wrap;html=1;aspect=fixed;" parent="1" vertex="1">
          <mxGeometry x="660" y="1140" width="20" height="20" as="geometry" />
        </mxCell>
        <mxCell id="D90VI0-EXbcfJWrA68ud-89" value="&lt;font face=&quot;Times New Roman&quot;&gt;3&lt;/font&gt;" style="ellipse;whiteSpace=wrap;html=1;aspect=fixed;" parent="1" vertex="1">
          <mxGeometry x="660" y="1180" width="20" height="20" as="geometry" />
        </mxCell>
        <mxCell id="D90VI0-EXbcfJWrA68ud-90" value="" style="endArrow=none;html=1;rounded=0;" parent="1" edge="1">
          <mxGeometry width="50" height="50" relative="1" as="geometry">
            <mxPoint x="670" y="1240" as="sourcePoint" />
            <mxPoint x="670" y="1200" as="targetPoint" />
          </mxGeometry>
        </mxCell>
        <mxCell id="D90VI0-EXbcfJWrA68ud-91" value="" style="endArrow=none;html=1;rounded=0;" parent="1" edge="1">
          <mxGeometry width="50" height="50" relative="1" as="geometry">
            <mxPoint x="280" y="1240" as="sourcePoint" />
            <mxPoint x="670" y="1240" as="targetPoint" />
          </mxGeometry>
        </mxCell>
        <mxCell id="D90VI0-EXbcfJWrA68ud-92" value="" style="endArrow=classic;html=1;rounded=0;" parent="1" edge="1">
          <mxGeometry width="50" height="50" relative="1" as="geometry">
            <mxPoint x="280" y="1240" as="sourcePoint" />
            <mxPoint x="280" y="1200" as="targetPoint" />
          </mxGeometry>
        </mxCell>
        <mxCell id="D90VI0-EXbcfJWrA68ud-93" value="&lt;font face=&quot;Times New Roman&quot;&gt;4&lt;/font&gt;" style="ellipse;whiteSpace=wrap;html=1;aspect=fixed;" parent="1" vertex="1">
          <mxGeometry x="270" y="1180" width="20" height="20" as="geometry" />
        </mxCell>
        <mxCell id="D90VI0-EXbcfJWrA68ud-94" value="&lt;font face=&quot;Times New Roman&quot;&gt;4&lt;/font&gt;" style="ellipse;whiteSpace=wrap;html=1;aspect=fixed;" parent="1" vertex="1">
          <mxGeometry x="270" y="1140" width="20" height="20" as="geometry" />
        </mxCell>
        <mxCell id="D90VI0-EXbcfJWrA68ud-95" value="" style="endArrow=none;html=1;rounded=0;" parent="1" edge="1">
          <mxGeometry width="50" height="50" relative="1" as="geometry">
            <mxPoint x="280" y="1140" as="sourcePoint" />
            <mxPoint x="280" y="750" as="targetPoint" />
          </mxGeometry>
        </mxCell>
        <mxCell id="D90VI0-EXbcfJWrA68ud-96" value="" style="endArrow=classic;html=1;rounded=0;entryX=0;entryY=0.5;entryDx=0;entryDy=0;" parent="1" target="D90VI0-EXbcfJWrA68ud-48" edge="1">
          <mxGeometry width="50" height="50" relative="1" as="geometry">
            <mxPoint x="280" y="750" as="sourcePoint" />
            <mxPoint x="330" y="700" as="targetPoint" />
          </mxGeometry>
        </mxCell>
        <mxCell id="D90VI0-EXbcfJWrA68ud-97" value="" style="endArrow=none;html=1;rounded=0;" parent="1" edge="1">
          <mxGeometry width="50" height="50" relative="1" as="geometry">
            <mxPoint x="480" y="750" as="sourcePoint" />
            <mxPoint x="700" y="750" as="targetPoint" />
          </mxGeometry>
        </mxCell>
        <mxCell id="D90VI0-EXbcfJWrA68ud-99" value="" style="endArrow=classic;html=1;rounded=0;" parent="1" edge="1">
          <mxGeometry width="50" height="50" relative="1" as="geometry">
            <mxPoint x="700" y="750" as="sourcePoint" />
            <mxPoint x="700" y="1140" as="targetPoint" />
          </mxGeometry>
        </mxCell>
        <mxCell id="D90VI0-EXbcfJWrA68ud-100" value="&lt;font face=&quot;Times New Roman&quot;&gt;5&lt;/font&gt;" style="ellipse;whiteSpace=wrap;html=1;aspect=fixed;" parent="1" vertex="1">
          <mxGeometry x="690" y="1140" width="20" height="20" as="geometry" />
        </mxCell>
        <mxCell id="D90VI0-EXbcfJWrA68ud-101" value="&lt;font face=&quot;Times New Roman&quot;&gt;5&lt;/font&gt;" style="ellipse;whiteSpace=wrap;html=1;aspect=fixed;" parent="1" vertex="1">
          <mxGeometry x="690" y="1180" width="20" height="20" as="geometry" />
        </mxCell>
        <mxCell id="D90VI0-EXbcfJWrA68ud-102" value="" style="endArrow=none;html=1;rounded=0;" parent="1" edge="1">
          <mxGeometry width="50" height="50" relative="1" as="geometry">
            <mxPoint x="700" y="1200" as="sourcePoint" />
            <mxPoint x="700" y="1260" as="targetPoint" />
          </mxGeometry>
        </mxCell>
        <mxCell id="D90VI0-EXbcfJWrA68ud-103" value="" style="endArrow=none;html=1;rounded=0;" parent="1" edge="1">
          <mxGeometry width="50" height="50" relative="1" as="geometry">
            <mxPoint x="400" y="1260" as="sourcePoint" />
            <mxPoint x="700" y="1260" as="targetPoint" />
          </mxGeometry>
        </mxCell>
        <mxCell id="D90VI0-EXbcfJWrA68ud-104" value="" style="endArrow=classic;html=1;rounded=0;" parent="1" edge="1">
          <mxGeometry width="50" height="50" relative="1" as="geometry">
            <mxPoint x="400" y="1260" as="sourcePoint" />
            <mxPoint x="400" y="1280" as="targetPoint" />
          </mxGeometry>
        </mxCell>
        <mxCell id="D90VI0-EXbcfJWrA68ud-105" value="&lt;font face=&quot;Times New Roman&quot;&gt;HashSet&amp;lt;int&amp;gt; uniqueElements = new HashSet&amp;lt;int&amp;gt;();&lt;/font&gt;" style="rounded=0;whiteSpace=wrap;html=1;" parent="1" vertex="1">
          <mxGeometry x="319.6600000000001" y="1540" width="160" height="40" as="geometry" />
        </mxCell>
        <mxCell id="D90VI0-EXbcfJWrA68ud-106" value="" style="endArrow=classic;html=1;rounded=0;" parent="1" edge="1">
          <mxGeometry width="50" height="50" relative="1" as="geometry">
            <mxPoint x="399.6600000000001" y="1580" as="sourcePoint" />
            <mxPoint x="399.6600000000001" y="1600" as="targetPoint" />
          </mxGeometry>
        </mxCell>
        <mxCell id="D90VI0-EXbcfJWrA68ud-107" value="&lt;span style=&quot;font-family: &amp;quot;Times New Roman&amp;quot;;&quot;&gt;int i = 0; i &amp;lt; N; i++&lt;/span&gt;" style="shape=hexagon;perimeter=hexagonPerimeter2;whiteSpace=wrap;html=1;fixedSize=1;" parent="1" vertex="1">
          <mxGeometry x="319.6600000000001" y="1600" width="160" height="20" as="geometry" />
        </mxCell>
        <mxCell id="D90VI0-EXbcfJWrA68ud-108" value="" style="endArrow=classic;html=1;rounded=0;" parent="1" edge="1">
          <mxGeometry width="50" height="50" relative="1" as="geometry">
            <mxPoint x="399.3200000000001" y="1620" as="sourcePoint" />
            <mxPoint x="399.3200000000001" y="1640" as="targetPoint" />
          </mxGeometry>
        </mxCell>
        <mxCell id="D90VI0-EXbcfJWrA68ud-109" value="&lt;font face=&quot;Times New Roman&quot;&gt;int j = 0; j &amp;lt; M; j++&lt;/font&gt;" style="shape=hexagon;perimeter=hexagonPerimeter2;whiteSpace=wrap;html=1;fixedSize=1;" parent="1" vertex="1">
          <mxGeometry x="319.6600000000001" y="1640" width="160" height="20" as="geometry" />
        </mxCell>
        <mxCell id="D90VI0-EXbcfJWrA68ud-110" value="" style="endArrow=classic;html=1;rounded=0;" parent="1" edge="1">
          <mxGeometry width="50" height="50" relative="1" as="geometry">
            <mxPoint x="399.4600000000001" y="1660" as="sourcePoint" />
            <mxPoint x="399.4600000000001" y="1680" as="targetPoint" />
          </mxGeometry>
        </mxCell>
        <mxCell id="D90VI0-EXbcfJWrA68ud-111" value="&lt;font face=&quot;Times New Roman&quot;&gt;uniqueElements.Add(matrix[i, j]);&lt;/font&gt;" style="rounded=0;whiteSpace=wrap;html=1;" parent="1" vertex="1">
          <mxGeometry x="319.6600000000001" y="1680" width="160" height="40" as="geometry" />
        </mxCell>
        <mxCell id="D90VI0-EXbcfJWrA68ud-112" value="" style="endArrow=none;html=1;rounded=0;" parent="1" edge="1">
          <mxGeometry width="50" height="50" relative="1" as="geometry">
            <mxPoint x="399.6600000000001" y="1730" as="sourcePoint" />
            <mxPoint x="399.6600000000001" y="1720" as="targetPoint" />
          </mxGeometry>
        </mxCell>
        <mxCell id="D90VI0-EXbcfJWrA68ud-113" value="" style="endArrow=none;html=1;rounded=0;" parent="1" edge="1">
          <mxGeometry width="50" height="50" relative="1" as="geometry">
            <mxPoint x="309.6600000000001" y="1730" as="sourcePoint" />
            <mxPoint x="399.6600000000001" y="1730" as="targetPoint" />
          </mxGeometry>
        </mxCell>
        <mxCell id="D90VI0-EXbcfJWrA68ud-114" value="" style="endArrow=none;html=1;rounded=0;" parent="1" edge="1">
          <mxGeometry width="50" height="50" relative="1" as="geometry">
            <mxPoint x="309.6600000000001" y="1730" as="sourcePoint" />
            <mxPoint x="309.6600000000001" y="1650" as="targetPoint" />
          </mxGeometry>
        </mxCell>
        <mxCell id="D90VI0-EXbcfJWrA68ud-115" value="" style="endArrow=classic;html=1;rounded=0;entryX=0;entryY=0.5;entryDx=0;entryDy=0;" parent="1" target="D90VI0-EXbcfJWrA68ud-109" edge="1">
          <mxGeometry width="50" height="50" relative="1" as="geometry">
            <mxPoint x="309.6600000000001" y="1650" as="sourcePoint" />
            <mxPoint x="359.6600000000001" y="1600" as="targetPoint" />
          </mxGeometry>
        </mxCell>
        <mxCell id="D90VI0-EXbcfJWrA68ud-116" value="" style="endArrow=none;html=1;rounded=0;" parent="1" edge="1">
          <mxGeometry width="50" height="50" relative="1" as="geometry">
            <mxPoint x="479.6600000000001" y="1650" as="sourcePoint" />
            <mxPoint x="489.6600000000001" y="1650" as="targetPoint" />
          </mxGeometry>
        </mxCell>
        <mxCell id="D90VI0-EXbcfJWrA68ud-117" value="" style="endArrow=none;html=1;rounded=0;" parent="1" edge="1">
          <mxGeometry width="50" height="50" relative="1" as="geometry">
            <mxPoint x="489.6600000000001" y="1650" as="sourcePoint" />
            <mxPoint x="489.6600000000001" y="1740" as="targetPoint" />
          </mxGeometry>
        </mxCell>
        <mxCell id="D90VI0-EXbcfJWrA68ud-118" value="" style="endArrow=none;html=1;rounded=0;" parent="1" edge="1">
          <mxGeometry width="50" height="50" relative="1" as="geometry">
            <mxPoint x="299.6600000000001" y="1740" as="sourcePoint" />
            <mxPoint x="489.6600000000001" y="1740" as="targetPoint" />
          </mxGeometry>
        </mxCell>
        <mxCell id="D90VI0-EXbcfJWrA68ud-119" value="" style="endArrow=none;html=1;rounded=0;" parent="1" edge="1">
          <mxGeometry width="50" height="50" relative="1" as="geometry">
            <mxPoint x="299.6600000000001" y="1740" as="sourcePoint" />
            <mxPoint x="299.6600000000001" y="1610" as="targetPoint" />
          </mxGeometry>
        </mxCell>
        <mxCell id="D90VI0-EXbcfJWrA68ud-120" value="" style="endArrow=classic;html=1;rounded=0;entryX=0;entryY=0.5;entryDx=0;entryDy=0;" parent="1" target="D90VI0-EXbcfJWrA68ud-107" edge="1">
          <mxGeometry width="50" height="50" relative="1" as="geometry">
            <mxPoint x="299.6600000000001" y="1610" as="sourcePoint" />
            <mxPoint x="349.6600000000001" y="1560" as="targetPoint" />
          </mxGeometry>
        </mxCell>
        <mxCell id="D90VI0-EXbcfJWrA68ud-121" value="" style="endArrow=none;html=1;rounded=0;" parent="1" edge="1">
          <mxGeometry width="50" height="50" relative="1" as="geometry">
            <mxPoint x="479.6600000000001" y="1610" as="sourcePoint" />
            <mxPoint x="499.66" y="1610" as="targetPoint" />
          </mxGeometry>
        </mxCell>
        <mxCell id="D90VI0-EXbcfJWrA68ud-122" value="" style="endArrow=none;html=1;rounded=0;" parent="1" edge="1">
          <mxGeometry width="50" height="50" relative="1" as="geometry">
            <mxPoint x="499.66" y="1610" as="sourcePoint" />
            <mxPoint x="499.66" y="1750" as="targetPoint" />
          </mxGeometry>
        </mxCell>
        <mxCell id="D90VI0-EXbcfJWrA68ud-123" value="" style="endArrow=none;html=1;rounded=0;" parent="1" edge="1">
          <mxGeometry width="50" height="50" relative="1" as="geometry">
            <mxPoint x="399.6600000000001" y="1750" as="sourcePoint" />
            <mxPoint x="499.66" y="1750" as="targetPoint" />
          </mxGeometry>
        </mxCell>
        <mxCell id="D90VI0-EXbcfJWrA68ud-124" value="" style="endArrow=classic;html=1;rounded=0;" parent="1" edge="1">
          <mxGeometry width="50" height="50" relative="1" as="geometry">
            <mxPoint x="399.6600000000001" y="1750" as="sourcePoint" />
            <mxPoint x="399.6600000000001" y="1780" as="targetPoint" />
          </mxGeometry>
        </mxCell>
        <mxCell id="D90VI0-EXbcfJWrA68ud-125" value="&lt;font face=&quot;Times New Roman&quot;&gt;&lt;span style=&quot;font-size: 11px;&quot;&gt;$&quot;Количество уникальных элементов в матрице: {uniqueElements.Count}&quot;&lt;/span&gt;&lt;/font&gt;" style="shape=document;whiteSpace=wrap;html=1;boundedLbl=1;" parent="1" vertex="1">
          <mxGeometry x="319.6600000000001" y="1780" width="160" height="60" as="geometry" />
        </mxCell>
        <mxCell id="D90VI0-EXbcfJWrA68ud-126" value="" style="endArrow=classic;html=1;rounded=0;exitX=0.501;exitY=0.858;exitDx=0;exitDy=0;exitPerimeter=0;" parent="1" source="D90VI0-EXbcfJWrA68ud-125" edge="1">
          <mxGeometry width="50" height="50" relative="1" as="geometry">
            <mxPoint x="349.6600000000001" y="1910" as="sourcePoint" />
            <mxPoint x="399.6600000000001" y="1860" as="targetPoint" />
          </mxGeometry>
        </mxCell>
        <mxCell id="D90VI0-EXbcfJWrA68ud-127" value="&lt;font face=&quot;Times New Roman&quot;&gt;Конец&lt;/font&gt;" style="ellipse;whiteSpace=wrap;html=1;" parent="1" vertex="1">
          <mxGeometry x="319.6600000000001" y="1860" width="160" height="40" as="geometry" />
        </mxCell>
        <mxCell id="111rbNZGSHcQOnGPlUOn-1" value="&lt;font face=&quot;Times New Roman&quot;&gt;Console.Clear();&lt;/font&gt;" style="rounded=0;whiteSpace=wrap;html=1;" vertex="1" parent="1">
          <mxGeometry x="319.76" y="1280" width="160" height="20" as="geometry" />
        </mxCell>
        <mxCell id="111rbNZGSHcQOnGPlUOn-2" value="" style="endArrow=classic;html=1;rounded=0;" edge="1" parent="1">
          <mxGeometry width="50" height="50" relative="1" as="geometry">
            <mxPoint x="400" y="1300" as="sourcePoint" />
            <mxPoint x="400" y="1320" as="targetPoint" />
          </mxGeometry>
        </mxCell>
        <mxCell id="111rbNZGSHcQOnGPlUOn-3" value="&lt;span style=&quot;font-family: &amp;quot;Times New Roman&amp;quot;;&quot;&gt;int i = 0; i &amp;lt; N; i++&lt;/span&gt;" style="shape=hexagon;perimeter=hexagonPerimeter2;whiteSpace=wrap;html=1;fixedSize=1;" vertex="1" parent="1">
          <mxGeometry x="319.76000000000005" y="1320" width="160" height="20" as="geometry" />
        </mxCell>
        <mxCell id="111rbNZGSHcQOnGPlUOn-4" value="&lt;font face=&quot;Times New Roman&quot;&gt;int j = 0; j &amp;lt; M; j++&lt;/font&gt;" style="shape=hexagon;perimeter=hexagonPerimeter2;whiteSpace=wrap;html=1;fixedSize=1;" vertex="1" parent="1">
          <mxGeometry x="319.76000000000005" y="1360" width="160" height="20" as="geometry" />
        </mxCell>
        <mxCell id="111rbNZGSHcQOnGPlUOn-5" value="" style="endArrow=classic;html=1;rounded=0;entryX=0.5;entryY=0;entryDx=0;entryDy=0;" edge="1" parent="1" target="111rbNZGSHcQOnGPlUOn-4">
          <mxGeometry width="50" height="50" relative="1" as="geometry">
            <mxPoint x="400" y="1340" as="sourcePoint" />
            <mxPoint x="450" y="1290" as="targetPoint" />
          </mxGeometry>
        </mxCell>
        <mxCell id="111rbNZGSHcQOnGPlUOn-6" value="" style="endArrow=classic;html=1;rounded=0;entryX=0.5;entryY=0;entryDx=0;entryDy=0;" edge="1" parent="1">
          <mxGeometry width="50" height="50" relative="1" as="geometry">
            <mxPoint x="399.76" y="1380" as="sourcePoint" />
            <mxPoint x="399.76" y="1400" as="targetPoint" />
          </mxGeometry>
        </mxCell>
        <mxCell id="111rbNZGSHcQOnGPlUOn-7" value="&lt;font face=&quot;Times New Roman&quot;&gt;&lt;span style=&quot;font-size: 11px;&quot;&gt;$&quot;{i + 1}-й элемент {j + 1}-й строки: {matrix[i, j]}&quot;&lt;/span&gt;&lt;/font&gt;" style="shape=document;whiteSpace=wrap;html=1;boundedLbl=1;" vertex="1" parent="1">
          <mxGeometry x="320" y="1400" width="160" height="40" as="geometry" />
        </mxCell>
        <mxCell id="111rbNZGSHcQOnGPlUOn-8" value="" style="endArrow=classic;html=1;rounded=0;entryX=0.5;entryY=0;entryDx=0;entryDy=0;exitX=0.496;exitY=0.831;exitDx=0;exitDy=0;exitPerimeter=0;" edge="1" parent="1" source="111rbNZGSHcQOnGPlUOn-7">
          <mxGeometry width="50" height="50" relative="1" as="geometry">
            <mxPoint x="399.76" y="1440" as="sourcePoint" />
            <mxPoint x="399.76" y="1460" as="targetPoint" />
          </mxGeometry>
        </mxCell>
        <mxCell id="111rbNZGSHcQOnGPlUOn-9" value="&lt;font face=&quot;Times New Roman&quot;&gt;Console.ReadKey(true);&lt;/font&gt;" style="rounded=0;whiteSpace=wrap;html=1;" vertex="1" parent="1">
          <mxGeometry x="319.76" y="1460" width="160" height="20" as="geometry" />
        </mxCell>
        <mxCell id="111rbNZGSHcQOnGPlUOn-10" value="" style="endArrow=none;html=1;rounded=0;" edge="1" parent="1">
          <mxGeometry width="50" height="50" relative="1" as="geometry">
            <mxPoint x="400" y="1490" as="sourcePoint" />
            <mxPoint x="400" y="1480" as="targetPoint" />
          </mxGeometry>
        </mxCell>
        <mxCell id="111rbNZGSHcQOnGPlUOn-11" value="" style="endArrow=none;html=1;rounded=0;" edge="1" parent="1">
          <mxGeometry width="50" height="50" relative="1" as="geometry">
            <mxPoint x="310" y="1490" as="sourcePoint" />
            <mxPoint x="400" y="1490" as="targetPoint" />
          </mxGeometry>
        </mxCell>
        <mxCell id="111rbNZGSHcQOnGPlUOn-12" value="" style="endArrow=none;html=1;rounded=0;" edge="1" parent="1">
          <mxGeometry width="50" height="50" relative="1" as="geometry">
            <mxPoint x="310" y="1490" as="sourcePoint" />
            <mxPoint x="310" y="1370" as="targetPoint" />
          </mxGeometry>
        </mxCell>
        <mxCell id="111rbNZGSHcQOnGPlUOn-13" value="" style="endArrow=classic;html=1;rounded=0;entryX=0;entryY=0.5;entryDx=0;entryDy=0;" edge="1" parent="1" target="111rbNZGSHcQOnGPlUOn-4">
          <mxGeometry width="50" height="50" relative="1" as="geometry">
            <mxPoint x="310" y="1370" as="sourcePoint" />
            <mxPoint x="360" y="1320" as="targetPoint" />
          </mxGeometry>
        </mxCell>
        <mxCell id="111rbNZGSHcQOnGPlUOn-14" value="" style="endArrow=none;html=1;rounded=0;" edge="1" parent="1">
          <mxGeometry width="50" height="50" relative="1" as="geometry">
            <mxPoint x="480" y="1370" as="sourcePoint" />
            <mxPoint x="490" y="1370" as="targetPoint" />
          </mxGeometry>
        </mxCell>
        <mxCell id="111rbNZGSHcQOnGPlUOn-15" value="" style="endArrow=none;html=1;rounded=0;" edge="1" parent="1">
          <mxGeometry width="50" height="50" relative="1" as="geometry">
            <mxPoint x="490" y="1370" as="sourcePoint" />
            <mxPoint x="490" y="1500" as="targetPoint" />
          </mxGeometry>
        </mxCell>
        <mxCell id="111rbNZGSHcQOnGPlUOn-16" value="" style="endArrow=none;html=1;rounded=0;" edge="1" parent="1">
          <mxGeometry width="50" height="50" relative="1" as="geometry">
            <mxPoint x="300" y="1500" as="sourcePoint" />
            <mxPoint x="490" y="1500" as="targetPoint" />
          </mxGeometry>
        </mxCell>
        <mxCell id="111rbNZGSHcQOnGPlUOn-17" value="" style="endArrow=none;html=1;rounded=0;" edge="1" parent="1">
          <mxGeometry width="50" height="50" relative="1" as="geometry">
            <mxPoint x="300" y="1500" as="sourcePoint" />
            <mxPoint x="300" y="1330" as="targetPoint" />
          </mxGeometry>
        </mxCell>
        <mxCell id="111rbNZGSHcQOnGPlUOn-18" value="" style="endArrow=classic;html=1;rounded=0;" edge="1" parent="1">
          <mxGeometry width="50" height="50" relative="1" as="geometry">
            <mxPoint x="300" y="1330" as="sourcePoint" />
            <mxPoint x="320" y="1330" as="targetPoint" />
          </mxGeometry>
        </mxCell>
        <mxCell id="111rbNZGSHcQOnGPlUOn-19" value="" style="endArrow=none;html=1;rounded=0;" edge="1" parent="1">
          <mxGeometry width="50" height="50" relative="1" as="geometry">
            <mxPoint x="500" y="1330" as="sourcePoint" />
            <mxPoint x="480" y="1330" as="targetPoint" />
          </mxGeometry>
        </mxCell>
        <mxCell id="111rbNZGSHcQOnGPlUOn-20" value="" style="endArrow=none;html=1;rounded=0;" edge="1" parent="1">
          <mxGeometry width="50" height="50" relative="1" as="geometry">
            <mxPoint x="500" y="1510" as="sourcePoint" />
            <mxPoint x="500" y="1330" as="targetPoint" />
          </mxGeometry>
        </mxCell>
        <mxCell id="111rbNZGSHcQOnGPlUOn-21" value="" style="endArrow=none;html=1;rounded=0;" edge="1" parent="1">
          <mxGeometry width="50" height="50" relative="1" as="geometry">
            <mxPoint x="400" y="1510" as="sourcePoint" />
            <mxPoint x="500" y="1510" as="targetPoint" />
          </mxGeometry>
        </mxCell>
        <mxCell id="111rbNZGSHcQOnGPlUOn-22" value="" style="endArrow=classic;html=1;rounded=0;" edge="1" parent="1">
          <mxGeometry width="50" height="50" relative="1" as="geometry">
            <mxPoint x="400" y="1510" as="sourcePoint" />
            <mxPoint x="400" y="1540" as="targetPoint" />
          </mxGeometry>
        </mxCell>
      </root>
    </mxGraphModel>
  </diagram>
</mxfile>
